<svg height="52pt" viewBox="0 0 52 52" width="52pt" xmlns="http://www.w3.org/2000/svg"><path d="m224 382c-5.140625 0-10.277344-1.96875-14.1875-5.902344-7.785156-7.835937-7.746094-20.5.089844-28.285156l78.203125-77.695312c3.800781-3.777344 5.894531-8.792969 5.894531-14.117188s-2.09375-10.335938-5.894531-14.113281l-78.203125-77.699219c-7.835938-7.785156-7.875-20.445312-.089844-28.28125s20.449219-7.878906 28.285156-.09375l78.199219 77.699219c11.417969 11.339843 17.703125 26.429687 17.703125 42.488281s-6.285156 31.148438-17.703125 42.488281l-78.199219 77.699219c-3.902344 3.875-9 5.8125-14.097656 5.8125zm164.460938 93.105469c9.449218-5.722657 12.46875-18.019531 6.746093-27.46875-5.726562-9.449219-18.023437-12.46875-27.46875-6.742188-33.59375 20.347657-72.230469 31.105469-111.738281 31.105469-119.101562 0-216-96.898438-216-216s96.898438-216 216-216 216 96.898438 216 216c0 42.589844-12.664062 84.042969-36.625 119.882812-6.140625 9.183594-3.671875 21.605469 5.511719 27.742188 9.179687 6.140625 21.601562 3.671875 27.742187-5.507812 28.371094-42.441407 43.371094-91.585938 43.371094-142.117188 0-68.378906-26.628906-132.667969-74.980469-181.019531-48.351562-48.351563-112.640625-74.980469-181.019531-74.980469s-132.667969 26.628906-181.019531 74.980469c-48.351563 48.351562-74.980469 112.640625-74.980469 181.019531s26.628906 132.667969 74.980469 181.019531c48.351562 48.351563 112.640625 74.980469 181.019531 74.980469 46.8125 0 92.617188-12.757812 132.460938-36.894531zm0 0"/>
<linearGradient id="chevron">
  <stop offset="5%" stop-color="#00d301" />
  <stop offset="55%" stop-color="#36c275" />
  <stop offset="95%" stop-color="#00a562" />
</linearGradient>
</svg>